<?xml version="1.0" encoding="UTF-8" standalone="no"?> <svg id="icon" xmlns="http://www.w3.org/2000/svg" viewBox="0 0 340 340"><title>website portfolio</title><rect x="10.261" y="46.207" width="319.477" height="247.585" rx="12.961" style="fill:#f4f4f9"/><path d="M316.777,46.207H23.223A12.962,12.962,0,0,0,10.261,59.169V82.434H329.739V59.169A12.962,12.962,0,0,0,316.777,46.207Z" style="fill:#c8c8ce"/><path d="M105,150.729a24.564,24.564,0,0,0-2.481-1.4,2.339,2.339,0,0,1-.517-3.878,15.357,15.357,0,0,0,5.374-12.371,15.419,15.419,0,0,0-30.824.677,15.35,15.35,0,0,0,5.381,11.687,2.341,2.341,0,0,1-.51,3.885,24.564,24.564,0,0,0-2.481,1.4,21.478,21.478,0,0,0-9.725,18.12v7.726a7.232,7.232,0,0,0,7.232,7.232h31.044a7.232,7.232,0,0,0,7.232-7.232v-7.726A21.478,21.478,0,0,0,105,150.729Z" style="fill:#95b5e5"/><path d="M65.218,168.849v7.725A11.245,11.245,0,0,0,76.45,187.807h31.044a11.245,11.245,0,0,0,11.232-11.233v-7.725a25.337,25.337,0,0,0-11.563-21.485q-.418-.268-.848-.524a19.289,19.289,0,0,0,5.059-13.927,19.547,19.547,0,0,0-18.432-18.548,19.409,19.409,0,0,0-15.311,32.474q-.429.255-.848.524A25.339,25.339,0,0,0,65.218,168.849ZM81.105,154.1a20.3,20.3,0,0,1,2.075-1.168,6.341,6.341,0,0,0,1.358-10.515,11.411,11.411,0,0,1,7.433-20.07c.193,0,.386,0,.58.013a11.487,11.487,0,0,1,10.83,10.9,11.357,11.357,0,0,1-3.979,9.162,6.337,6.337,0,0,0,1.365,10.511,20.329,20.329,0,0,1,2.074,1.168,17.374,17.374,0,0,1,7.885,14.753v7.725a3.237,3.237,0,0,1-3.232,3.233H76.45a3.237,3.237,0,0,1-3.232-3.233v-7.725A17.374,17.374,0,0,1,81.105,154.1Z" style="fill:#575777"/><path d="M316.777,42.207H23.223A16.981,16.981,0,0,0,6.261,59.169V280.831a16.981,16.981,0,0,0,16.962,16.962H316.777a16.981,16.981,0,0,0,16.962-16.962v-178.4a4,4,0,0,0-8,0v178.4a8.972,8.972,0,0,1-8.962,8.962H23.223a8.972,8.972,0,0,1-8.962-8.962V59.169a8.972,8.972,0,0,1,8.962-8.962H316.777a8.972,8.972,0,0,1,8.962,8.962V78.434H30.261a4,4,0,1,0,0,8H329.739a4,4,0,0,0,4-4V59.169A16.981,16.981,0,0,0,316.777,42.207Z" style="fill:#575777"/><path d="M36.63,68.01a3.973,3.973,0,0,0,.75.23,4.128,4.128,0,0,0,.78.079,4,4,0,1,0-.78-7.92,3.9,3.9,0,0,0-.75.231,4.436,4.436,0,0,0-.69.36,4,4,0,0,0-1.11,1.11,4.478,4.478,0,0,0-.36.69,3.832,3.832,0,0,0-.23.75,4.127,4.127,0,0,0-.08.779,4.063,4.063,0,0,0,1.17,2.83,4.746,4.746,0,0,0,.61.5A4.441,4.441,0,0,0,36.63,68.01Z" style="fill:#575777"/><path d="M62.17,68.01a4.11,4.11,0,0,0,.74.23,4.232,4.232,0,0,0,.79.079,4,4,0,1,0-1.53-7.689,3.69,3.69,0,0,0-.69.36,4.279,4.279,0,0,0-.61.5,4.006,4.006,0,0,0,0,5.659,4.148,4.148,0,0,0,.61.5A3.693,3.693,0,0,0,62.17,68.01Z" style="fill:#575777"/><path d="M92.06,67.149a4.02,4.02,0,0,0,1.17-2.83,4.111,4.111,0,0,0-.07-.779,4.659,4.659,0,0,0-.23-.75,4.532,4.532,0,0,0-.37-.69,4.161,4.161,0,0,0-.5-.61,3.993,3.993,0,0,0-5.65,0,3.605,3.605,0,0,0-.5.61,4.033,4.033,0,0,0-.6,1.44,4.127,4.127,0,0,0-.08.779,4,4,0,0,0,6.83,2.83Z" style="fill:#575777"/><path d="M156.5,102.571V272.036a4,4,0,0,0,8,0V102.571a4,4,0,1,0-8,0Z" style="fill:#575777"/><path d="M130.65,211.23H55.294a4,4,0,0,0,0,8H130.65a4,4,0,0,0,0-8Z" style="fill:#575777"/><path d="M130.65,242.654H53.294a4,4,0,1,0,0,8H130.65a4,4,0,0,0,0-8Z" style="fill:#575777"/><path d="M289.445,120.484H227.354a4,4,0,1,0,0,8h62.091a4,4,0,0,0,0-8Z" style="fill:#575777"/><path d="M289.445,159.069H190.354a4,4,0,0,0,0,8h99.091a4,4,0,0,0,0-8Z" style="fill:#575777"/><path d="M289.445,197.654H227.354a4,4,0,0,0,0,8h62.091a4,4,0,0,0,0-8Z" style="fill:#575777"/><path d="M190.354,244.239h99.091a4,4,0,0,0,0-8H190.354a4,4,0,0,0,0,8Z" style="fill:#575777"/><path d="M190.374,128.484a4,4,0,0,0,0-8h-.01a4,4,0,0,0,.01,8Z" style="fill:#575777"/><path d="M190.374,205.654a4,4,0,1,0,0-8h-.01a4,4,0,0,0,.01,8Z" style="fill:#575777"/></svg>